<svg width="16" height="16" viewBox="0 0 16 16" fill="none" xmlns="http://www.w3.org/2000/svg">
    <path fill-rule="evenodd" clip-rule="evenodd" d="M10.4354 1.33337C10.5175 2.11404 10.2163 2.89863 9.76881 3.46224C9.32126 4.02621 8.58674 4.46423 7.86774 4.40635C7.76976 3.64113 8.13291 2.84273 8.54757 2.34391C9.01026 1.78061 9.79029 1.36035 10.4354 1.33337ZM13.0987 11.1136C13.0211 11.0809 11.3991 10.3974 11.3814 8.41696C11.3672 6.76498 12.6508 5.9531 12.761 5.88342C12.7633 5.88195 12.7651 5.88081 12.7664 5.88C12.0132 4.73302 10.8403 4.57551 10.4225 4.55742C9.81201 4.49305 9.21971 4.73613 8.73604 4.93463C8.42896 5.06065 8.16566 5.16871 7.96928 5.16871C7.75017 5.16871 7.47944 5.05699 7.17568 4.93164C6.77794 4.76751 6.32355 4.58 5.85423 4.58932C4.76606 4.60577 3.76351 5.24732 3.20252 6.26045C2.07324 8.30056 2.91426 11.3229 4.01477 12.9782C4.55334 13.7875 5.19523 14.699 6.03817 14.6658C6.41539 14.6504 6.68354 14.5316 6.9608 14.4087C7.28057 14.267 7.61246 14.12 8.13774 14.12C8.63956 14.12 8.95689 14.2628 9.26201 14.4001C9.55338 14.5313 9.83363 14.6574 10.2528 14.6494C11.1261 14.6326 11.6804 13.8234 12.2146 13.0111C12.8126 12.1018 13.0704 11.2206 13.0993 11.122C13.1002 11.1187 13.101 11.1163 13.1014 11.1147C13.1011 11.1146 13.1002 11.1142 13.0987 11.1136Z" fill="#0A0A0A"/>
</svg>
