<svg width="20" height="20" viewBox="0 0 20 20" fill="none" xmlns="http://www.w3.org/2000/svg">
    <path d="M17.5 7.71411V14.1086C17.5 16.7245 15.8532 18.3333 13.2188 18.3333H6.77246C4.16287 18.3331 2.5 16.6911 2.5 14.0579V7.71411H17.5ZM13.3672 13.6594C12.9885 13.6678 12.6842 13.9832 12.6924 14.3665C12.6924 14.7496 12.9965 15.0659 13.375 15.0745C13.7619 15.0745 14.0752 14.7581 14.0752 14.3665C14.0751 13.9757 13.7619 13.6594 13.375 13.6594H13.3672ZM6.5918 13.6497C6.21314 13.6672 5.91707 13.9832 5.91699 14.3665C5.93346 14.7498 6.2463 15.0509 6.625 15.0334C6.99522 15.0174 7.29174 14.7007 7.27539 14.3176C7.26716 13.9427 6.96221 13.6497 6.5918 13.6497ZM9.9834 13.6497C9.6048 13.6672 9.30867 13.9832 9.30859 14.3665C9.32506 14.7498 9.6379 15.0509 10.0166 15.0334C10.387 15.0175 10.6834 14.7008 10.667 14.3176C10.6588 13.9426 10.3539 13.6497 9.9834 13.6497ZM6.59961 10.6252C6.22118 10.6429 5.92501 10.959 5.9248 11.342C5.94127 11.7245 6.25411 12.0256 6.63281 12.0081C7.00328 11.9922 7.29967 11.6754 7.2832 11.2913C7.27479 10.9173 6.96997 10.6252 6.59961 10.6252ZM9.9834 10.6252C9.6049 10.6428 9.3088 10.9589 9.30859 11.342C9.32506 11.7245 9.6379 12.0256 10.0166 12.0081C10.387 11.9921 10.6835 11.6754 10.667 11.2913C10.6586 10.9173 10.3538 10.6252 9.9834 10.6252ZM13.375 10.634C12.9965 10.6426 12.7002 10.951 12.7002 11.3342V11.342C12.7084 11.7245 13.0217 12.0164 13.4004 12.0081C13.7707 12.0004 14.0667 11.6842 14.0586 11.301C14.0421 10.9335 13.7455 10.634 13.375 10.634Z" fill="#9E9E9E"/>
    <path opacity="0.4" d="M2.50279 7.71404C2.51349 7.22487 2.55466 6.25404 2.63205 5.94154C3.02722 4.18404 4.36915 3.06737 6.28737 2.9082H13.7133C15.615 3.0757 16.9734 4.19987 17.3686 5.94154C17.4452 6.2457 17.4863 7.22404 17.497 7.71404H2.50279Z" fill="#9E9E9E"/>
    <path d="M6.92072 5.49163C7.28296 5.49163 7.55464 5.21746 7.55464 4.84996V2.30913C7.55464 1.94163 7.28296 1.66663 6.92072 1.66663C6.55848 1.66663 6.2868 1.94163 6.2868 2.30913V4.84996C6.2868 5.21746 6.55848 5.49163 6.92072 5.49163Z" fill="#9E9E9E"/>
    <path d="M13.0791 5.49163C13.4331 5.49163 13.713 5.21746 13.713 4.84996V2.30913C13.713 1.94163 13.4331 1.66663 13.0791 1.66663C12.7169 1.66663 12.4452 1.94163 12.4452 2.30913V4.84996C12.4452 5.21746 12.7169 5.49163 13.0791 5.49163Z" fill="#9E9E9E"/>
</svg>
