<svg width="20" height="20" viewBox="0 0 20 20" fill="none" xmlns="http://www.w3.org/2000/svg">
    <path opacity="0.4" d="M18.3333 13.2834C18.3333 15.6084 16.4666 17.4917 14.1416 17.5001H14.1333H5.87496C3.55829 17.5001 1.66663 15.6251 1.66663 13.3001V13.2917C1.66663 13.2917 1.67163 9.60341 1.67829 7.74841C1.67913 7.40008 2.07913 7.20508 2.35163 7.42175C4.33163 8.99258 7.87246 11.8567 7.91663 11.8942C8.50829 12.3684 9.25829 12.6359 10.025 12.6359C10.7916 12.6359 11.5416 12.3684 12.1333 11.8851C12.1775 11.8559 15.6391 9.07758 17.6491 7.48091C17.9225 7.26341 18.3241 7.45841 18.325 7.80591C18.3333 9.64675 18.3333 13.2834 18.3333 13.2834Z" fill="#9E9E9E"/>
    <path d="M17.8966 4.72809C17.1749 3.36809 15.7549 2.49976 14.1916 2.49976H5.87494C4.31161 2.49976 2.89161 3.36809 2.16994 4.72809C2.00828 5.03226 2.08494 5.41142 2.35411 5.62642L8.54161 10.5756C8.97494 10.9256 9.49994 11.0998 10.0249 11.0998C10.0283 11.0998 10.0308 11.0998 10.0333 11.0998C10.0358 11.0998 10.0391 11.0998 10.0416 11.0998C10.5666 11.0998 11.0916 10.9256 11.5249 10.5756L17.7124 5.62642C17.9816 5.41142 18.0583 5.03226 17.8966 4.72809Z" fill="#9E9E9E"/>
</svg>
