<svg width="14" height="14" viewBox="0 0 14 14" fill="none" xmlns="http://www.w3.org/2000/svg">
    <path d="M5.60693 8.63818C8.70303 8.66513 10.4554 9.29066 10.4556 10.9985C10.4556 12.6704 8.77662 13.3156 5.81592 13.3696L5.39404 13.3735C2.16476 13.3735 0.333729 12.7594 0.333496 11.0122C0.333704 9.26275 2.17203 8.63722 5.39404 8.63721L5.60693 8.63818ZM5.39404 9.63721C2.71618 9.63722 1.3338 10.1077 1.3335 11.0122C1.33384 11.9109 2.7129 12.3735 5.39404 12.3735C8.07247 12.3735 9.45557 11.9032 9.45557 10.9985C9.45526 10.1002 8.0747 9.63721 5.39404 9.63721ZM10.7251 8.16553C11.112 8.19187 11.4971 8.24764 11.8667 8.32959C12.6585 8.48717 13.2473 8.7812 13.5171 9.34717C13.7161 9.76612 13.716 10.2535 13.5171 10.6724C13.2488 11.237 12.666 11.529 11.8696 11.6929C11.5991 11.7485 11.3344 11.5747 11.2788 11.3042C11.2233 11.0339 11.3973 10.7692 11.6675 10.7134C12.18 10.608 12.5216 10.4375 12.6138 10.2437C12.6839 10.0961 12.6836 9.92388 12.6138 9.77686C12.521 9.5823 12.1783 9.41121 11.6606 9.30811C11.3291 9.2347 10.9938 9.18552 10.6567 9.1626C10.3813 9.14383 10.1732 8.90583 10.1919 8.63037C10.2106 8.35487 10.4496 8.14679 10.7251 8.16553ZM5.39404 0.666504C7.29265 0.666603 8.81689 2.19115 8.81689 4.08936C8.8168 5.98802 7.2927 7.51211 5.39404 7.51221C3.49553 7.51204 1.97129 5.98807 1.97119 4.08936C1.97119 2.1911 3.49559 0.666667 5.39404 0.666504ZM9.68018 1.37939C11.17 1.37951 12.3784 2.58802 12.3784 4.07764C12.3784 5.56768 11.1702 6.77576 9.68018 6.77588C9.40414 6.77588 9.18034 6.55188 9.18018 6.27588C9.18018 5.99974 9.40403 5.77588 9.68018 5.77588C10.6179 5.77576 11.3784 5.01539 11.3784 4.07764C11.3784 3.14026 10.6177 2.37951 9.68018 2.37939C9.40403 2.37939 9.18018 2.15554 9.18018 1.87939C9.18027 1.60333 9.40409 1.37939 9.68018 1.37939ZM5.39404 1.6665C4.04791 1.66667 2.97119 2.74335 2.97119 4.08936C2.97129 5.43585 4.04789 6.51204 5.39404 6.51221C6.74042 6.51211 7.8168 5.43573 7.81689 4.08936C7.81689 2.74347 6.7404 1.6666 5.39404 1.6665Z" fill="#9E9E9E"/>
</svg>
