<svg width="20" height="20" viewBox="0 0 20 20" fill="none" xmlns="http://www.w3.org/2000/svg">
    <path d="M13.526 7.26147C15.4904 7.2615 17.0834 8.81896 17.0836 10.74V14.8542C17.0836 16.7754 15.4905 18.3337 13.526 18.3337H6.47424C4.50971 18.3337 2.91663 16.7755 2.91663 14.8542V10.74C2.91683 8.81895 4.50983 7.26147 6.47424 7.26147H13.526ZM9.99573 11.1541C9.58936 11.1541 9.25954 11.4764 9.2594 11.8738V13.7126C9.25951 14.1183 9.58934 14.4412 9.99573 14.4412C10.4106 14.4412 10.7407 14.1183 10.7408 13.7126V11.8738C10.7407 11.4764 10.4106 11.1541 9.99573 11.1541Z" fill="#9E9E9E"/>
    <path opacity="0.4" d="M14.6024 6.16325V7.38885C14.306 7.30604 13.9927 7.26464 13.6709 7.26464H13.1205V6.16325C13.1205 4.48219 11.7233 3.11582 10.0043 3.11582C8.28535 3.11582 6.88816 4.47391 6.8797 6.14669V7.26464H6.33776C6.00751 7.26464 5.6942 7.30604 5.39783 7.39713V6.16325C5.40629 3.67893 7.46398 1.66663 9.98739 1.66663C12.5447 1.66663 14.6024 3.67893 14.6024 6.16325Z" fill="#9E9E9E"/>
</svg>
