<svg width="25" height="24" viewBox="0 0 25 24" fill="none" xmlns="http://www.w3.org/2000/svg">
    <path fill-rule="evenodd" clip-rule="evenodd" d="M2.5 12.0058C2.5 6.48625 6.98842 2 12.5 2C18.0116 2 22.5 6.48625 22.5 12.0058C22.5 17.5137 18.0116 22 12.5 22C6.98842 22 2.5 17.5137 2.5 12.0058ZM16.168 13.0178C16.2741 12.9117 16.4093 12.7477 16.4382 12.7091C16.5927 12.5065 16.6699 12.2557 16.6699 12.0058C16.6699 11.725 16.583 11.4645 16.4189 11.2523C16.4055 11.2388 16.3791 11.2102 16.3448 11.1728C16.2806 11.103 16.1885 11.0026 16.1004 10.9146C15.3089 10.0656 13.2432 8.67631 12.1622 8.25181C11.9981 8.18524 11.583 8.03956 11.361 8.02991C11.1486 8.02991 10.9459 8.07815 10.7529 8.17463C10.5116 8.3097 10.3185 8.52195 10.2124 8.77279C10.1448 8.94645 10.0386 9.46744 10.0386 9.47709C9.93243 10.0463 9.87452 10.9725 9.87452 11.9952C9.87452 12.9706 9.93243 13.8572 10.0193 14.4361C10.0217 14.4385 10.03 14.4799 10.0429 14.5442C10.0821 14.7397 10.1638 15.1471 10.251 15.314C10.4633 15.7192 10.8784 15.9701 11.3224 15.9701H11.361C11.6506 15.9604 12.2587 15.7096 12.2587 15.7C13.2819 15.2754 15.2992 13.9537 16.11 13.0757L16.168 13.0178Z" fill="white"/>
</svg>
